<svg viewBox="-1.92 -1.92 27.84 27.84" fill="#E6E6E6" xmlns="http://www.w3.org/2000/svg"><g id="SVGRepo_bgCarrier" stroke-width="0"></g><g id="SVGRepo_tracerCarrier" stroke-linecap="round" stroke-linejoin="round"></g><g id="SVGRepo_iconCarrier"> <path opacity="0.1" d="M8.976 3C4.05476 3 3 4.05476 3 8.976V15.024C3 19.9452 4.05476 21 8.976 21H9V9H21V8.976C21 4.05476 19.9452 3 15.024 3H8.976Z" fill="#fdf7f7"></path> <path d="M3 8.976C3 4.05476 4.05476 3 8.976 3H15.024C19.9452 3 21 4.05476 21 8.976V15.024C21 19.9452 19.9452 21 15.024 21H8.976C4.05476 21 3 19.9452 3 15.024V8.976Z" stroke="#fdf7f7" stroke-width="2.4"></path> <path d="M21 9L3 9" stroke="#fdf7f7" stroke-width="2.4" stroke-linecap="round" stroke-linejoin="round"></path> <path d="M9 21L9 9" stroke="#fdf7f7" stroke-width="2.4" stroke-linecap="round" stroke-linejoin="round"></path> </g></svg>